<svg width="36" height="36" viewBox="0 0 36 36" fill="none" xmlns="http://www.w3.org/2000/svg"><path fill-rule="evenodd" clip-rule="evenodd" d="M3 9.84615C3 6.90785 5.26916 4.5 8.22928 4.5H13.4503C15.1424 4.5 16.7619 5.09093 17.9774 6.51162L19.7234 8.19231H27.7707C30.7308 8.19231 33 10.6002 33 13.5385V26.1538C33 29.0922 30.7308 31.5 27.7707 31.5H8.22928C5.26916 31.5 3 29.0922 3 26.1538V9.84615ZM8.22928 7.5C7.01261 7.5 6 8.47677 6 9.84615V26.1538C6 27.5232 7.01261 28.5 8.22928 28.5H27.7707C28.9874 28.5 30 27.5232 30 26.1538V13.5385C30 12.1691 28.9874 11.1923 27.7707 11.1923H19.1188C18.7309 11.1923 18.358 11.042 18.0785 10.773L15.841 8.61915C15.801 8.58063 15.7631 8.53993 15.7276 8.49721C15.1592 7.8133 14.4165 7.5 13.4503 7.5H8.22928Z" fill="#EF551D"/></svg>
