<svg width="35" height="35" viewBox="0 0 24 24" fill="none" xmlns="http://www.w3.org/2000/svg">
<path d="M22.6315 17.6849L17.0534 8.33562C16.5463 7.5137 15.6335 7 14.6193 7C13.6052 7 12.6924 7.5137 12.1853 8.33562L8.02708 15.2192C7.72282 15.7329 7.92566 16.3493 8.33134 16.6575C8.83843 16.9658 9.44695 16.7603 9.75121 16.3493L13.9094 9.46575C14.1122 9.15753 14.4165 9.05479 14.6193 9.05479C14.8222 9.05479 15.1264 9.0548 15.3293 9.46575L20.9074 18.8151C21.1102 19.226 21.0088 19.5342 20.9074 19.637C20.8059 19.7397 20.6031 20.0479 20.1974 20.0479H3.86888C3.4632 20.0479 3.26036 19.7397 3.15894 19.637C3.05752 19.5342 2.9561 19.226 3.15894 18.8151L5.69443 14.7055C5.89727 14.3973 6.20153 14.2945 6.50579 14.2945C7.01288 14.3973 7.6214 13.9863 7.6214 13.3699C7.72282 12.8562 7.31714 12.2397 6.70863 12.2397C5.59301 12.137 4.4774 12.6507 3.9703 13.5753L1.43481 17.6849C0.927714 18.6096 0.826294 19.637 1.33339 20.5616C1.84049 21.4863 2.75326 22 3.76746 22H20.096C21.1102 22 22.023 21.4863 22.5301 20.5616C23.1386 19.637 23.1386 18.6096 22.6315 17.6849Z" fill="#EF551D"/>
<path d="M6 9C8.2439 9 10 7.16867 10 5.04819C10 2.92771 8.2439 1 6 1C3.7561 1 2 2.83133 2 4.95181C2 7.07229 3.7561 9 6 9ZM6 2.92771C7.17073 2.92771 8.04878 3.89157 8.04878 4.95181C8.04878 6.01205 7.17073 7.07229 6 7.07229C4.82927 7.07229 3.95122 6.10843 3.95122 5.04819C3.95122 3.98795 4.82927 2.92771 6 2.92771Z" fill="#EF551D"/>
</svg>
