<svg width="43" height="40" viewBox="0 0 46 43" fill="none" xmlns="http://www.w3.org/2000/svg">
<path d="M17 17.5C15.3504 15.8504 14 17.5 13.5 18.5C13 19.5 12.5 21.5 13.5 23L16.5 27C17 27.5 18 29.5 20 30C20.5 30.125 22 30.5 24 28.5L35 17.0891L45 6C47 3.5 45.5248 2.22777 44.4163 1.33317C43.3078 0.438556 41.9094 0.634719 41.0641 1.67614L36.4163 6.88323C32.6129 3.13412 27.5406 0.842997 22.0467 0.842997C10.4251 0.842997 0.916321 10.2158 0.916321 21.6715C0.916321 33.127 10.4251 42.4998 22.0467 42.4998C33.6685 42.4998 43.1772 33.127 43.1772 21.6715C43.1772 19.7969 43.3114 18.9637 42.6775 17.0891C42.2549 16.0477 41.6775 15.1157 39.6775 15.5098C38.621 15.718 36.838 16.5 36.838 17.9998C36.838 20.0873 36.9557 20.8897 36.838 22.343C36.1775 30.4998 30.6775 36.1664 22.0467 36.1664C14.1776 36.1664 6.91632 31.4998 6.91632 21.6715C6.91632 13.9998 11.9041 6.88323 22.0467 6.88323C26.6955 6.88323 29.0355 8.00058 32.4163 11.3331C28.1244 16.5334 25.0942 20.7596 21.9163 21.8331C20.9163 22.1709 20.408 22.362 19.5 21C18.5 19.5 18.2748 18.7747 17 17.5Z" fill="#EF551D"/>
</svg>
