<svg width="35" height="35" viewBox="0 0 24 24" fill="none" xmlns="http://www.w3.org/2000/svg">
<path fill-rule="evenodd" clip-rule="evenodd" d="M1 5.78146C1 3.646 2.62571 2 4.76316 2H14.2368C16.3973 2 18 3.76883 18 5.78146V11.7417C18 13.9004 16.2523 15.5232 14.2368 15.5232H8.01974C7.37166 15.5232 6.78381 15.7363 6.23901 16.127L2.59201 18.8059C2.28819 19.0291 1.88468 19.0625 1.54834 18.8922C1.212 18.7219 1 18.377 1 18V5.78146ZM3 16.0246L5.06751 14.5059C5.90319 13.9051 6.89305 13.5232 8.01974 13.5232H14.2368C15.182 13.5232 16 12.7619 16 11.7417V5.78146C16 4.81395 15.2342 4 14.2368 4H4.76316C3.74271 4 3 4.7381 3 5.78146V16.0246Z" fill="#FFFFFF"/>
<path fill-rule="evenodd" clip-rule="evenodd" d="M19.5305 8.62067C19.7399 8.10961 20.3239 7.86505 20.835 8.07442C22.095 8.59064 23 9.78392 23 11.1823V21.9998C23 22.3666 22.7992 22.7039 22.4768 22.8788C22.1543 23.0537 21.762 23.038 21.4546 22.838L17.9546 20.5606C17.9328 20.5464 17.9115 20.5313 17.8908 20.5154C17.5068 20.2205 16.9266 20.0582 16.2353 20.0582H10.3676C8.98095 20.0582 7.68903 19.2924 7.09922 18.0691C6.85936 17.5716 7.0682 16.9739 7.56568 16.734C8.06316 16.4942 8.66089 16.703 8.90075 17.2005C9.13447 17.6853 9.69549 18.0582 10.3676 18.0582H16.2353C17.1784 18.0582 18.2298 18.2698 19.0755 18.9038L21 20.156V11.1823C21 10.6828 20.6697 10.168 20.0768 9.92513C19.5657 9.71576 19.3211 9.13173 19.5305 8.62067Z" fill="#FFFFFF"/>
</svg>
