<svg width="36" height="36" viewBox="0 0 36 36" fill="none" xmlns="http://www.w3.org/2000/svg">
<path fill-rule="evenodd" clip-rule="evenodd" d="M14.2909 1.62145L7.58182 2.77798C4.96364 3.27364 3 5.5867 3 8.39542V27.3956C3 30.2043 4.96364 32.5174 7.58182 33.013L14.2909 34.3348C14.6182 34.5 14.9455 34.5 15.2727 34.5C16.5818 34.5 17.8909 34.0043 18.8727 33.1782C20.1818 32.0217 21 30.5347 21 28.7173V7.23889C21 5.5867 20.1818 3.93451 18.8727 2.77798C17.7273 1.62145 15.9273 1.29101 14.2909 1.62145ZM17.7273 28.7173C17.7273 29.3782 17.4 30.2043 16.9091 30.5347C16.4182 31.0304 15.6 31.1956 14.9455 31.0304L8.23636 29.7087C7.09091 29.7087 6.27273 28.7173 6.27273 27.5608V8.39542C6.27273 7.23889 7.09091 6.24757 8.23636 5.91714L14.9455 4.7606C15.1091 4.7606 15.2727 4.7606 15.4364 4.7606C15.9273 4.7606 16.5818 4.92582 16.9091 5.25626C17.4 5.75192 17.7273 6.41279 17.7273 7.23889V28.7173Z" fill="black"/><path d="M26.9754 4.5H24.2213C23.1885 4.5 22.5 5.17105 22.5 6.17763C22.5 7.18421 23.1885 7.85526 24.2213 7.85526H26.9754C28.3525 7.85526 29.5574 9.02961 29.5574 10.3717V24.1283C29.5574 25.4704 28.3525 26.6447 26.9754 26.6447H24.2213C23.1885 26.6447 22.5 27.3158 22.5 28.3224C22.5 29.3289 23.1885 30 24.2213 30H26.9754C30.2459 30 33 27.3158 33 24.1283V10.3717C33 7.18421 30.2459 4.5 26.9754 4.5Z" fill="black"/><path d="M13.5 15C12.6 15 12 15.6667 12 16.6667V19.3333C12 20.3333 12.6 21 13.5 21C14.4 21 15 20.3333 15 19.3333V16.6667C15 15.6667 14.4 15 13.5 15Z" fill="#007B4E"/>
</svg>
