<svg width="118" height="35" viewBox="0 0 118 35" fill="none" xmlns="http://www.w3.org/2000/svg">
<path d="M14.308 34.18C11.452 34.18 8.968 33.664 6.856 32.632C4.744 31.576 3.124 30.088 1.996 28.168C0.868 26.248 0.304 24.016 0.304 21.472C0.304 17.944 0.964 14.812 2.284 12.076C3.628 9.34 5.44 7.228 7.72 5.74C10 4.228 12.532 3.472 15.316 3.472C17.908 3.472 19.876 4.144 21.22 5.488C22.564 6.808 23.236 8.56 23.236 10.744C23.236 12.208 22.972 13.384 22.444 14.272C21.94 15.16 21.208 15.604 20.248 15.604C19.576 15.604 19.048 15.448 18.664 15.136C18.28 14.824 18.088 14.368 18.088 13.768C18.088 13.552 18.136 13.156 18.232 12.58C18.376 11.86 18.448 11.284 18.448 10.852C18.448 8.668 17.284 7.576 14.956 7.576C13.372 7.576 11.86 8.092 10.42 9.124C8.98 10.156 7.816 11.68 6.928 13.696C6.04 15.688 5.596 18.064 5.596 20.824C5.596 23.704 6.4 25.936 8.008 27.52C9.616 29.08 11.992 29.86 15.136 29.86C16.696 29.86 18.268 29.668 19.852 29.284C21.46 28.876 23.236 28.264 25.18 27.448C25.54 27.304 25.84 27.232 26.08 27.232C26.464 27.232 26.752 27.376 26.944 27.664C27.136 27.952 27.232 28.324 27.232 28.78C27.232 30.244 26.44 31.324 24.856 32.02C23.152 32.764 21.376 33.316 19.528 33.676C17.704 34.012 15.964 34.18 14.308 34.18ZM42.4161 22.948C42.7281 22.948 42.9681 23.104 43.1361 23.416C43.3041 23.728 43.3881 24.124 43.3881 24.604C43.3881 25.756 43.0401 26.44 42.3441 26.656C40.9041 27.16 39.3201 27.448 37.5921 27.52C37.1361 29.536 36.2361 31.156 34.8921 32.38C33.5481 33.58 32.0241 34.18 30.3201 34.18C28.8801 34.18 27.6441 33.832 26.6121 33.136C25.6041 32.44 24.8361 31.516 24.3081 30.364C23.7801 29.212 23.5161 27.964 23.5161 26.62C23.5161 24.796 23.8641 23.176 24.5601 21.76C25.2561 20.32 26.2161 19.204 27.4401 18.412C28.6641 17.596 30.0201 17.188 31.5081 17.188C33.3321 17.188 34.7961 17.824 35.9001 19.096C37.0281 20.344 37.6881 21.892 37.8801 23.74C39.0081 23.668 40.3521 23.428 41.9121 23.02C42.1041 22.972 42.2721 22.948 42.4161 22.948ZM30.6081 30.364C31.3761 30.364 32.0361 30.052 32.5881 29.428C33.1641 28.804 33.5481 27.904 33.7401 26.728C32.9961 26.224 32.4201 25.564 32.0121 24.748C31.6281 23.932 31.4361 23.068 31.4361 22.156C31.4361 21.772 31.4721 21.388 31.5441 21.004H31.3641C30.4041 21.004 29.6001 21.472 28.9521 22.408C28.3281 23.32 28.0161 24.616 28.0161 26.296C28.0161 27.616 28.2681 28.624 28.7721 29.32C29.3001 30.016 29.9121 30.364 30.6081 30.364ZM53.9423 25.972C54.2543 25.972 54.4943 26.116 54.6623 26.404C54.8543 26.692 54.9503 27.088 54.9503 27.592C54.9503 28.552 54.7223 29.296 54.2663 29.824C53.2343 31.096 52.1063 32.14 50.8823 32.956C49.6823 33.772 48.3143 34.18 46.7783 34.18C44.6663 34.18 43.0943 33.22 42.0623 31.3C41.0543 29.38 40.5503 26.896 40.5503 23.848C40.5503 20.92 40.9223 17.584 41.6663 13.84C42.4343 10.096 43.5503 6.88 45.0143 4.192C46.5023 1.504 48.2663 0.159998 50.3063 0.159998C51.4583 0.159998 52.3583 0.699998 53.0063 1.78C53.6783 2.836 54.0143 4.36 54.0143 6.352C54.0143 9.208 53.2223 12.52 51.6383 16.288C50.0543 20.056 47.9063 23.788 45.1943 27.484C45.3623 28.468 45.6383 29.176 46.0223 29.608C46.4063 30.016 46.9103 30.22 47.5343 30.22C48.5183 30.22 49.3823 29.944 50.1263 29.392C50.8703 28.816 51.8183 27.844 52.9703 26.476C53.2583 26.14 53.5823 25.972 53.9423 25.972ZM49.5143 3.724C48.9623 3.724 48.3383 4.72 47.6423 6.712C46.9463 8.704 46.3343 11.176 45.8063 14.128C45.2783 17.08 44.9903 19.912 44.9423 22.624C46.6463 19.816 48.0023 17.008 49.0103 14.2C50.0183 11.368 50.5223 8.788 50.5223 6.46C50.5223 4.636 50.1863 3.724 49.5143 3.724ZM65.6845 25.972C65.9965 25.972 66.2365 26.116 66.4045 26.404C66.5965 26.692 66.6925 27.088 66.6925 27.592C66.6925 28.552 66.4645 29.296 66.0085 29.824C64.9765 31.096 63.8485 32.14 62.6245 32.956C61.4245 33.772 60.0565 34.18 58.5205 34.18C56.4085 34.18 54.8365 33.22 53.8045 31.3C52.7965 29.38 52.2925 26.896 52.2925 23.848C52.2925 20.92 52.6645 17.584 53.4085 13.84C54.1765 10.096 55.2925 6.88 56.7565 4.192C58.2445 1.504 60.0085 0.159998 62.0485 0.159998C63.2005 0.159998 64.1005 0.699998 64.7485 1.78C65.4205 2.836 65.7565 4.36 65.7565 6.352C65.7565 9.208 64.9645 12.52 63.3805 16.288C61.7965 20.056 59.6485 23.788 56.9365 27.484C57.1045 28.468 57.3805 29.176 57.7645 29.608C58.1485 30.016 58.6525 30.22 59.2765 30.22C60.2605 30.22 61.1245 29.944 61.8685 29.392C62.6125 28.816 63.5605 27.844 64.7125 26.476C65.0005 26.14 65.3245 25.972 65.6845 25.972ZM61.2565 3.724C60.7045 3.724 60.0805 4.72 59.3845 6.712C58.6885 8.704 58.0765 11.176 57.5485 14.128C57.0205 17.08 56.7325 19.912 56.6845 22.624C58.3885 19.816 59.7445 17.008 60.7525 14.2C61.7605 11.368 62.2645 8.788 62.2645 6.46C62.2645 4.636 61.9285 3.724 61.2565 3.724ZM79.8387 25.972C80.1507 25.972 80.3907 26.116 80.5587 26.404C80.7507 26.692 80.8467 27.088 80.8467 27.592C80.8467 28.552 80.6187 29.296 80.1627 29.824C79.2747 30.904 78.0147 31.9 76.3827 32.812C74.7747 33.724 73.0467 34.18 71.1987 34.18C68.6787 34.18 66.7227 33.496 65.3307 32.128C63.9387 30.76 63.2427 28.888 63.2427 26.512C63.2427 24.856 63.5907 23.32 64.2867 21.904C64.9827 20.464 65.9427 19.324 67.1667 18.484C68.4147 17.644 69.8187 17.224 71.3787 17.224C72.7707 17.224 73.8867 17.644 74.7267 18.484C75.5667 19.3 75.9867 20.416 75.9867 21.832C75.9867 23.488 75.3867 24.916 74.1867 26.116C73.0107 27.292 71.0067 28.228 68.1747 28.924C68.7747 30.028 69.9147 30.58 71.5947 30.58C72.6747 30.58 73.8987 30.208 75.2667 29.464C76.6587 28.696 77.8587 27.7 78.8667 26.476C79.1547 26.14 79.4787 25.972 79.8387 25.972ZM70.7667 20.752C69.8787 20.752 69.1227 21.268 68.4987 22.3C67.8987 23.332 67.5987 24.58 67.5987 26.044V26.116C69.0147 25.78 70.1307 25.276 70.9467 24.604C71.7627 23.932 72.1707 23.152 72.1707 22.264C72.1707 21.808 72.0387 21.448 71.7747 21.184C71.5347 20.896 71.1987 20.752 70.7667 20.752ZM95.9113 23.056C95.9833 23.032 96.1033 23.02 96.2713 23.02C96.6313 23.02 96.9073 23.14 97.0993 23.38C97.2913 23.62 97.3873 23.944 97.3873 24.352C97.3873 25.096 97.2433 25.684 96.9553 26.116C96.6673 26.524 96.2353 26.824 95.6593 27.016C94.5553 27.376 93.3793 27.556 92.1313 27.556C91.0753 27.556 90.0793 27.412 89.1433 27.124C88.4473 28.252 87.6793 29.416 86.8393 30.616C85.8793 31.984 85.0513 32.92 84.3553 33.424C83.6593 33.928 82.8673 34.18 81.9793 34.18C80.9953 34.18 80.2153 33.796 79.6393 33.028C79.0873 32.26 78.7393 31.048 78.5953 29.392C78.3073 26.032 78.1633 23.092 78.1633 20.572V19.312C78.1873 18.52 78.4033 17.968 78.8113 17.656C79.2193 17.344 79.8313 17.188 80.6473 17.188C81.2713 17.188 81.7273 17.332 82.0153 17.62C82.3273 17.884 82.4833 18.34 82.4833 18.988C82.4833 21.748 82.6513 25.336 82.9873 29.752C84.4273 27.616 85.5073 25.912 86.2273 24.64C85.8673 23.944 85.6873 23.116 85.6873 22.156C85.6873 21.34 85.8673 20.548 86.2273 19.78C86.5873 19.012 87.0793 18.388 87.7033 17.908C88.3273 17.428 89.0353 17.188 89.8273 17.188C90.5233 17.188 91.0873 17.44 91.5193 17.944C91.9513 18.424 92.1673 19.132 92.1673 20.068C92.1673 21.148 91.8793 22.384 91.3033 23.776C92.2153 23.728 93.4273 23.548 94.9393 23.236L95.9113 23.056ZM98.9792 14.848C97.9712 14.848 97.2152 14.62 96.7112 14.164C96.2072 13.684 95.9552 13.024 95.9552 12.184C95.9552 11.344 96.2792 10.648 96.9272 10.096C97.5992 9.52 98.4272 9.232 99.4112 9.232C100.299 9.232 101.019 9.448 101.571 9.88C102.123 10.312 102.399 10.924 102.399 11.716C102.399 12.676 102.087 13.444 101.463 14.02C100.839 14.572 100.011 14.848 98.9792 14.848ZM98.6912 34.18C97.1312 34.18 95.9912 33.628 95.2712 32.524C94.5752 31.42 94.2272 29.956 94.2272 28.132C94.2272 27.052 94.3592 25.672 94.6232 23.992C94.9112 22.288 95.2712 20.704 95.7032 19.24C95.9192 18.472 96.2072 17.944 96.5672 17.656C96.9272 17.368 97.5032 17.224 98.2952 17.224C99.5192 17.224 100.131 17.632 100.131 18.448C100.131 19.048 99.9032 20.44 99.4472 22.624C98.8712 25.264 98.5832 27.052 98.5832 27.988C98.5832 28.708 98.6792 29.26 98.8712 29.644C99.0632 30.028 99.3872 30.22 99.8432 30.22C100.275 30.22 100.815 29.92 101.463 29.32C102.111 28.72 102.975 27.772 104.055 26.476C104.343 26.14 104.667 25.972 105.027 25.972C105.339 25.972 105.579 26.116 105.747 26.404C105.939 26.692 106.035 27.088 106.035 27.592C106.035 28.552 105.807 29.296 105.351 29.824C102.975 32.728 100.755 34.18 98.6912 34.18ZM109.207 34.18C107.791 34.18 106.579 33.832 105.571 33.136C104.587 32.416 103.843 31.48 103.339 30.328C102.835 29.176 102.583 27.94 102.583 26.62C102.583 24.796 102.919 23.176 103.591 21.76C104.287 20.32 105.223 19.204 106.399 18.412C107.575 17.596 108.895 17.188 110.359 17.188C111.775 17.188 112.987 17.548 113.995 18.268C115.003 18.964 115.759 19.888 116.263 21.04C116.767 22.192 117.019 23.428 117.019 24.748C117.019 26.572 116.671 28.204 115.975 29.644C115.279 31.06 114.331 32.176 113.131 32.992C111.955 33.784 110.647 34.18 109.207 34.18ZM109.603 30.292C110.419 30.292 111.103 29.848 111.655 28.96C112.231 28.072 112.519 26.776 112.519 25.072C112.519 23.752 112.279 22.756 111.799 22.084C111.319 21.412 110.743 21.076 110.071 21.076C109.207 21.076 108.487 21.52 107.911 22.408C107.359 23.272 107.083 24.568 107.083 26.296C107.083 27.664 107.323 28.672 107.803 29.32C108.283 29.968 108.883 30.292 109.603 30.292Z" fill="#ED562B"/>
</svg>
